# xmcd CD database file
#
# Track frame offsets:
#	151
#	19267
#	33013
#	46850
#	62156
#	81691
#	99766
#	119135
#	134598
#
# Disc length: 1946 seconds
#
# Revision: 1
# Processed by: cddbd v1.5.2PL0 Copyright (c) Steve Scherf et al.
# Submitted via: CDex 1.70beta2
#
DISCID=79079809
DTITLE=Ilan Chester - Al pie de la letra
DYEAR=2001
DGENRE=Pop Latino
TTITLE0=Para siempre
TTITLE1=Eres una en un millon
TTITLE2=Por alguien como tu
TTITLE3=Amor y lluvia
TTITLE4=Vale la pena esperar
TTITLE5=Vivir contigo y sin ti
TTITLE6=El carrousel
TTITLE7=Asi no mas
TTITLE8=Pisando tierra
EXTD=YEAR: 2001
EXTT0=
EXTT1=
EXTT2=
EXTT3=
EXTT4=
EXTT5=
EXTT6=
EXTT7=
EXTT8=
PLAYORDER=
